<?xml version="1.0" standalone="no"?>
<!DOCTYPE svg PUBLIC "-//W3C//DTD SVG 20010904//EN"
 "http://www.w3.org/TR/2001/REC-SVG-20010904/DTD/svg10.dtd">
<svg version="1.0" xmlns="http://www.w3.org/2000/svg"
 width="512.000000pt" height="512.000000pt" viewBox="0 0 512.000000 512.000000"
 preserveAspectRatio="xMidYMid meet">
<metadata>
Created by potrace 1.14, written by Peter Selinger 2001-2017
</metadata>
<g transform="translate(0.000000,512.000000) scale(0.100000,-0.100000)"
fill="#000000" stroke="none">
<path d="M2347 5110 c-788 -71 -1482 -482 -1917 -1137 -225 -339 -352 -681
-411 -1113 -21 -153 -16 -496 10 -667 87 -571 342 -1070 750 -1466 l122 -118
29 30 c43 47 104 71 183 71 104 0 176 -40 220 -124 30 -57 30 -165 0 -222
l-22 -41 127 -61 c379 -182 707 -256 1127 -255 247 0 408 19 627 74 321 81
680 256 930 454 50 39 56 48 49 67 -5 13 -65 163 -135 335 -69 171 -126 317
-126 323 0 7 64 10 213 8 l212 -3 71 -187 c38 -103 73 -190 76 -194 14 -14
258 317 258 350 0 7 11 25 25 40 53 57 183 346 240 531 30 98 75 289 75 318 0
14 -6 11 -27 -14 -50 -60 -87 -89 -158 -123 -101 -49 -160 -59 -311 -54 -109
4 -141 9 -204 33 -128 48 -210 111 -280 216 l-37 57 -16 -70 c-40 -164 -138
-369 -254 -527 -68 -92 -237 -262 -316 -316 l-58 -39 80 -21 c138 -37 222 -90
296 -188 73 -96 111 -235 98 -359 l-6 -58 -350 -2 -351 -3 33 -37 c46 -53 103
-72 201 -66 68 4 87 9 131 37 l53 32 110 -111 111 -111 -40 -34 c-102 -87
-226 -125 -404 -125 -141 0 -229 18 -324 64 -185 90 -287 252 -287 455 1 104
12 158 50 234 24 47 26 57 12 53 -9 -3 -44 -8 -77 -11 -33 -3 -77 -8 -97 -11
l-38 -6 0 -384 0 -384 -197 2 -198 3 -3 36 -3 37 -49 -33 c-67 -45 -135 -59
-258 -53 -89 4 -109 9 -177 41 -177 84 -275 255 -275 479 0 144 30 236 112
346 33 44 116 110 171 136 9 4 9 7 1 11 -48 23 -196 145 -280 229 -252 256
-401 579 -436 948 -34 362 74 740 299 1047 122 167 348 358 536 453 247 124
559 186 818 161 62 -7 116 -10 118 -8 2 2 -47 125 -108 272 -61 147 -111 274
-111 281 0 10 46 12 211 10 l211 -3 102 -262 c55 -145 103 -263 106 -263 3 0
16 28 29 63 13 34 60 153 104 265 l79 202 194 0 c148 0 194 -3 194 -12 0 -7
-75 -199 -166 -427 l-167 -414 44 -35 c146 -116 326 -338 411 -505 69 -137
133 -342 153 -489 l6 -47 72 73 c121 123 257 176 452 176 125 0 199 -15 290
-60 66 -32 151 -112 185 -175 l22 -40 -6 90 c-13 214 -77 488 -167 714 l-52
131 -131 0 -131 1 -103 132 c-57 73 -112 143 -123 155 l-19 24 -27 -33 c-26
-31 -28 -40 -33 -153 l-5 -121 -207 -3 -208 -2 0 554 0 555 -57 34 c-206 124
-512 241 -758 291 -225 45 -533 64 -738 46z"/>
<path d="M4320 4384 c0 -22 2 -25 15 -14 12 10 13 16 4 26 -16 20 -19 18 -19
-12z"/>
<path d="M4950 2591 l-154 -78 -27 42 c-32 50 -60 72 -111 85 -80 22 -176 -31
-198 -110 -25 -91 -6 -183 49 -233 85 -77 199 -50 273 63 l16 25 147 -73 c81
-40 149 -71 151 -69 16 15 32 428 17 426 -5 0 -78 -35 -163 -78z"/>
<path d="M3292 991 c-48 -12 -102 -71 -102 -111 0 -6 54 -10 156 -10 l155 0
-7 23 c-24 76 -114 120 -202 98z"/>
<path d="M2002 950 c-89 -21 -137 -127 -112 -245 21 -103 97 -157 190 -136 57
13 97 54 116 119 47 160 -55 297 -194 262z"/>
</g>
</svg>
